<?xml version="1.0" standalone="no"?>
<!DOCTYPE svg PUBLIC "-//W3C//DTD SVG 20010904//EN"
 "http://www.w3.org/TR/2001/REC-SVG-20010904/DTD/svg10.dtd">
<svg version="1.0" xmlns="http://www.w3.org/2000/svg"
 width="270" height="270" viewBox="0 0 2838.000000 1607.000000"
 preserveAspectRatio="xMidYMid meet">
<metadata>
Created by potrace 1.16, written by Peter Selinger 2001-2019
</metadata>
<g transform="translate(0.000000,1607.000000) scale(0.100000,-0.100000)"
fill="#dee2e6" stroke="none">
<path d="M18954 15372 c-16 -15 -38 -41 -49 -57 -11 -16 -35 -44 -52 -62 l-33
-32 0 -135 c0 -135 4 -166 22 -166 10 0 58 -45 58 -55 0 -19 116 -135 135
-135 8 0 15 -4 15 -10 0 -5 8 -10 18 -10 10 0 27 -7 38 -15 28 -21 246 -21
264 0 7 8 17 15 22 15 36 0 97 76 99 124 1 20 2 20 6 1 3 -11 16 -35 30 -52
19 -27 31 -33 61 -34 20 0 49 -8 63 -17 50 -32 134 -100 165 -133 53 -57 194
-249 194 -265 0 -8 4 -22 9 -32 5 -9 12 -24 15 -32 4 -8 15 -28 25 -45 11 -16
20 -47 20 -67 1 -20 6 -40 11 -43 6 -3 10 -21 10 -40 0 -19 4 -36 9 -40 5 -3
13 -36 17 -73 3 -37 9 -69 13 -72 15 -12 31 -52 31 -75 0 -23 -5 -20 -49 33
-56 67 -128 132 -148 132 -7 0 -13 4 -13 9 0 5 -8 11 -17 15 -10 3 -31 14 -48
25 -16 11 -40 20 -52 20 -12 1 -25 6 -28 11 -3 6 -16 10 -28 10 -12 0 -31 7
-41 15 -27 20 -130 20 -150 0 -8 -8 -21 -15 -28 -15 -8 0 -26 -13 -41 -28 -25
-27 -27 -34 -27 -124 0 -54 4 -100 10 -103 6 -3 10 -21 10 -40 0 -19 5 -37 10
-40 6 -3 10 -15 10 -25 0 -25 144 -170 169 -170 6 0 11 -4 11 -10 0 -5 9 -10
19 -10 11 0 23 -4 26 -10 3 -5 17 -10 31 -10 13 0 24 -4 24 -8 0 -27 140 -56
155 -32 3 6 22 10 40 10 54 0 112 36 143 89 l27 46 5 -435 c4 -322 8 -441 18
-457 15 -28 16 -85 0 -101 -8 -8 -15 -63 -20 -145 -8 -152 -16 -215 -29 -223
-5 -3 -9 -26 -9 -52 0 -26 -7 -56 -15 -66 -10 -13 -15 -43 -15 -82 0 -35 -4
-66 -10 -69 -5 -3 -10 -21 -10 -40 0 -19 -4 -37 -10 -40 -5 -3 -10 -30 -10
-59 0 -28 -5 -57 -11 -63 -7 -7 -14 -46 -17 -88 -5 -83 -22 -114 -22 -40 0 31
-8 61 -25 91 -14 25 -25 55 -25 67 0 12 -18 45 -40 72 -71 88 -90 105 -119
105 -16 0 -34 7 -41 15 -7 8 -21 15 -31 15 -10 0 -21 5 -24 10 -3 6 -30 10
-60 10 -30 0 -57 5 -60 10 -3 6 -26 10 -51 10 -38 0 -49 -5 -84 -40 -22 -22
-40 -47 -40 -55 0 -8 -3 -15 -7 -15 -30 0 -59 -139 -33 -155 6 -3 10 -30 10
-60 0 -29 6 -60 13 -67 6 -7 19 -26 27 -43 34 -71 103 -155 138 -172 20 -9 54
-27 74 -40 21 -13 44 -23 53 -23 8 0 15 -3 15 -7 0 -25 112 -45 125 -23 3 6
14 10 24 10 27 0 95 79 127 146 15 33 29 53 32 45 6 -17 -16 -83 -45 -139 -15
-28 -23 -60 -23 -92 0 -27 -4 -52 -10 -55 -5 -3 -10 -17 -10 -30 0 -13 -4 -26
-9 -30 -6 -3 -13 -27 -16 -53 -6 -45 -10 -57 -33 -112 -6 -14 -13 -41 -17 -60
-3 -19 -8 -49 -11 -67 l-6 -31 -351 -4 c-298 -4 -359 -7 -397 -21 -25 -9 -57
-17 -72 -17 -15 0 -30 -4 -33 -10 -3 -5 -19 -10 -35 -10 -16 0 -32 -4 -35 -10
-3 -5 -21 -10 -39 -10 -33 0 -145 -52 -194 -90 -28 -22 -32 -38 -48 -185 -7
-68 9 -129 43 -169 12 -13 26 -33 32 -44 13 -25 15 -145 2 -170 -5 -9 -18 -37
-30 -62 -59 -122 -101 -178 -232 -305 -291 -282 -466 -463 -480 -492 -7 -18
-17 -33 -21 -33 -5 0 -8 -9 -8 -20 0 -11 -4 -20 -9 -20 -5 0 -12 -11 -15 -25
-4 -14 -11 -25 -16 -25 -6 0 -10 -16 -10 -35 0 -19 -4 -35 -10 -35 -5 0 -10
-16 -10 -35 0 -19 -4 -35 -9 -35 -5 0 -11 -14 -15 -31 -3 -16 -13 -37 -21 -45
-14 -14 -15 -200 -13 -1693 l3 -1676 23 -25 c13 -14 26 -37 29 -52 3 -16 9
-28 14 -28 5 0 9 -11 9 -25 0 -14 4 -25 9 -25 11 0 41 -56 41 -77 0 -7 5 -13
10 -13 6 0 10 -10 10 -22 0 -13 9 -34 20 -48 11 -14 20 -29 20 -33 0 -5 27
-47 61 -95 64 -91 178 -209 268 -277 29 -22 65 -50 79 -63 15 -13 45 -32 67
-43 22 -11 47 -23 55 -28 45 -24 62 -31 79 -31 11 0 23 -4 26 -10 3 -5 14 -10
24 -10 16 0 59 -17 103 -41 10 -5 31 -9 47 -9 17 0 33 -4 36 -10 3 -5 17 -10
31 -10 13 0 32 -4 42 -9 61 -33 134 -36 892 -36 606 0 770 3 830 14 41 8 79
18 85 23 5 4 19 8 31 8 13 0 26 5 29 10 3 6 19 10 35 10 16 0 31 4 35 9 3 5
19 12 35 16 17 4 30 11 30 16 0 5 8 9 18 9 17 0 121 47 132 59 3 3 19 13 35
21 17 8 51 29 76 47 26 18 51 33 56 33 20 0 149 119 198 184 79 102 108 144
126 181 11 22 23 47 28 55 24 45 31 62 31 79 0 11 5 23 10 26 6 3 10 19 10 36
0 16 5 29 10 29 6 0 10 20 10 44 0 27 5 46 13 49 9 3 11 345 9 1678 -2 1027
-7 1678 -13 1683 -5 6 -9 25 -9 43 0 18 -4 33 -10 33 -5 0 -10 11 -10 24 0 14
-4 28 -10 31 -5 3 -10 17 -10 30 0 24 -31 87 -79 159 -14 21 -30 46 -36 55
-59 94 -104 151 -235 300 -30 34 -67 84 -81 110 -39 71 -96 149 -159 217 -47
52 -116 168 -140 239 -4 11 -13 36 -19 55 -7 19 -15 43 -18 52 -3 9 7 32 21
51 14 19 26 41 26 50 0 9 5 19 10 22 6 3 10 19 10 35 0 16 5 32 10 35 6 3 10
33 10 65 0 32 -4 62 -10 65 -5 3 -10 21 -10 40 0 26 -11 45 -51 89 -28 31 -59
56 -69 56 -11 0 -22 5 -25 10 -3 6 -19 10 -35 10 -16 0 -32 5 -35 10 -3 6 -16
10 -29 10 -12 0 -31 7 -42 15 -10 8 -37 15 -60 15 -22 0 -44 4 -50 9 -9 9 -36
14 -174 30 -41 5 -98 14 -127 20 -28 6 -92 13 -142 17 -76 6 -89 9 -80 21 11
13 24 61 36 131 3 18 9 35 14 38 5 3 9 15 9 27 0 12 7 31 15 41 8 11 15 37 15
57 0 21 5 41 10 44 6 3 10 23 10 43 0 20 8 46 16 57 15 19 16 18 13 -15 -5
-86 0 -103 49 -155 68 -72 95 -87 163 -88 51 -1 62 2 87 26 15 15 33 27 40 27
7 0 12 5 12 10 0 6 6 10 13 10 26 0 167 163 167 194 0 8 5 18 10 21 6 3 10 37
10 75 0 38 -4 72 -10 75 -5 3 -10 39 -10 79 0 53 -4 77 -15 86 -8 7 -15 18
-15 25 0 15 -25 37 -73 64 -42 24 -58 26 -87 11 -11 -5 -29 -14 -40 -20 -11
-5 -29 -10 -39 -10 -11 0 -23 -4 -26 -10 -3 -5 -13 -10 -21 -10 -31 0 -121
-78 -143 -124 -11 -25 -24 -46 -27 -46 -3 0 -2 6 3 12 4 7 11 38 15 68 4 30
14 84 23 120 25 102 35 159 44 245 7 70 8 73 9 28 1 -28 7 -55 12 -58 6 -3 10
-15 10 -25 0 -21 76 -100 96 -100 7 0 14 -5 16 -12 3 -9 34 -12 113 -10 98 3
112 6 149 30 23 15 57 35 76 45 51 26 62 36 106 97 50 69 63 125 65 276 2 135
-2 148 -65 190 -32 22 -45 24 -146 24 l-110 0 -88 -82 c-102 -97 -116 -112
-159 -163 l-33 -38 0 36 c0 20 5 39 10 42 6 3 10 21 10 40 0 19 5 37 10 40 6
3 10 30 10 58 0 29 7 93 15 142 17 105 19 170 5 211 -5 16 -11 164 -12 330
l-3 301 46 -39 c45 -38 46 -38 134 -38 59 0 94 4 104 13 9 8 32 20 51 27 71
27 217 188 219 241 1 9 12 27 26 40 21 21 25 33 25 86 0 53 -5 71 -31 113 -46
75 -76 86 -234 82 -120 -3 -133 -5 -174 -30 -24 -15 -60 -36 -79 -48 -45 -27
-82 -62 -82 -79 0 -7 -6 -18 -14 -24 -12 -10 -15 -1 -19 56 -7 99 -38 226 -57
238 -6 4 -10 13 -10 21 0 21 18 3 53 -53 55 -87 139 -118 197 -73 14 11 30 20
35 20 19 1 96 80 110 113 7 18 27 48 44 67 l31 35 -3 120 c-3 109 -11 152 -38
207 -5 10 -9 24 -9 33 0 22 -198 217 -246 241 -14 8 -53 14 -87 14 -49 0 -66
-5 -94 -26 -18 -14 -33 -34 -33 -44 0 -10 -4 -22 -10 -25 -5 -3 -10 -17 -10
-30 0 -13 -5 -25 -12 -27 -6 -2 -13 -31 -16 -66 -2 -34 -8 -65 -13 -68 -5 -3
-9 -28 -9 -55 0 -45 -2 -49 -15 -35 -8 8 -15 17 -15 20 0 8 -102 161 -141 211
-46 60 -90 106 -134 142 -27 22 -34 32 -23 33 9 0 20 -4 23 -10 3 -5 15 -10
25 -10 10 0 40 -11 66 -25 47 -25 118 -34 129 -16 3 5 20 13 37 16 20 5 52 28
85 62 53 54 53 54 53 119 0 51 -5 72 -25 104 -14 22 -25 50 -25 63 0 23 -37
74 -114 155 -39 40 -86 72 -109 72 -18 0 -87 33 -87 42 0 4 -58 8 -129 8
l-129 0 -36 -44 c-20 -24 -36 -49 -36 -54 0 -5 -7 -15 -15 -22 -11 -9 -15 -33
-15 -86 0 -88 27 -148 102 -228 26 -27 45 -52 43 -55 -3 -2 -25 6 -49 19 -27
13 -55 21 -70 18 -25 -5 -26 -4 -26 52 0 83 -30 142 -110 220 -99 96 -116 110
-133 110 -9 0 -19 5 -22 10 -3 6 -26 10 -50 10 -24 0 -47 5 -50 10 -3 6 -18
10 -33 10 -15 1 -38 7 -52 15 -43 25 -104 19 -136 -13z m956 -144 c14 -6 32
-14 40 -19 8 -5 25 -13 36 -18 31 -14 94 -83 94 -104 0 -10 9 -37 20 -60 20
-41 20 -42 2 -67 -23 -31 -90 -39 -124 -16 -12 9 -30 16 -40 16 -10 0 -33 9
-53 20 -20 11 -41 20 -48 20 -7 1 -30 19 -52 40 l-40 40 38 31 c20 17 37 39
37 49 0 10 5 22 10 25 6 3 10 20 10 36 0 33 8 33 70 7z m-720 -23 c7 -8 19
-15 26 -15 21 0 87 -40 104 -63 43 -59 60 -100 60 -147 0 -45 -4 -53 -45 -95
-40 -40 -51 -45 -90 -45 -24 0 -47 5 -50 10 -3 6 -21 10 -39 10 -19 0 -39 7
-46 15 -7 8 -19 15 -26 15 -15 0 -104 88 -104 102 0 5 8 11 18 15 36 13 72 45
72 64 0 11 7 31 16 45 11 17 15 37 11 64 l-5 40 43 0 c26 0 47 -6 55 -15z
m1388 -785 c6 -19 12 -81 14 -137 l3 -102 -43 -41 c-24 -22 -51 -40 -60 -40
-18 1 -52 23 -52 33 0 4 -16 31 -35 61 -19 30 -35 64 -35 75 0 11 -4 23 -10
26 -5 3 -10 21 -10 39 0 17 -5 37 -12 44 -17 17 0 28 22 14 46 -28 130 -5 130
36 0 8 12 31 27 50 l27 35 12 -29 c6 -16 16 -45 22 -64z m-702 -550 c9 0 31
-12 48 -27 18 -16 44 -37 57 -48 48 -40 65 -109 34 -135 -18 -15 -169 -9 -200
7 -11 7 -28 14 -37 17 -28 8 -21 20 22 39 l40 17 0 62 c0 44 -5 67 -17 82 -18
20 -18 20 9 3 15 -9 35 -17 44 -17z m944 -150 c0 -6 -4 -18 -9 -28 -5 -9 -19
-37 -30 -62 -31 -63 -48 -81 -111 -112 -67 -34 -111 -35 -150 -6 -26 19 -30
28 -30 68 0 88 42 128 85 80 36 -39 139 -15 197 47 22 24 48 31 48 13z m-198
-1525 c15 -20 29 -25 62 -25 23 0 51 7 62 15 27 21 34 19 34 -11 0 -60 -79
-160 -159 -201 -28 -15 -87 -17 -96 -3 -3 6 -16 10 -28 10 -12 0 -30 12 -40
26 -17 23 -17 27 -3 49 9 13 16 33 16 43 0 11 19 42 42 71 48 59 78 66 110 26z
m-879 -337 c56 -32 107 -80 107 -102 0 -13 12 -40 26 -61 30 -45 27 -64 -17
-130 -26 -39 -35 -45 -65 -45 -19 0 -34 5 -34 10 0 6 -9 10 -19 10 -11 0 -23
5 -26 10 -3 6 -12 10 -20 10 -7 0 -34 21 -60 47 -41 42 -44 49 -27 53 42 11
121 97 108 118 -3 5 -9 27 -15 50 -10 46 -1 53 42 30z m627 -393 c18 -22 137
-21 162 1 16 16 18 15 24 0 4 -10 2 -22 -5 -29 -6 -6 -11 -21 -11 -34 0 -34
-47 -100 -95 -133 -58 -40 -86 -45 -114 -23 -20 16 -23 28 -23 100 0 60 4 87
17 107 20 30 28 32 45 11z m-1010 -982 c58 -2 116 -6 130 -9 22 -5 23 -7 7
-15 -10 -6 -17 -22 -17 -38 0 -38 50 -61 135 -61 51 0 65 -3 65 -15 0 -18 -21
-20 -37 -4 -17 17 -82 -16 -94 -47 -16 -44 -12 -49 45 -49 58 0 77 -8 59 -26
-8 -8 -51 -9 -138 -4 -70 4 -122 11 -115 15 25 15 6 44 -34 52 -22 5 -44 12
-50 17 -6 5 -33 11 -61 14 -88 9 -149 24 -153 37 -9 25 -62 75 -69 65 -5 -5
-18 -16 -30 -22 -22 -12 -22 -12 -11 12 11 24 16 25 89 25 43 0 89 -5 103 -11
20 -10 30 -9 51 5 31 20 32 40 3 62 -19 14 -20 15 -3 8 11 -5 67 -10 125 -11z
m-175 -343 c3 -5 25 -10 49 -10 23 0 46 -3 50 -7 11 -11 113 -34 178 -40 44
-4 57 -9 61 -24 3 -11 14 -19 27 -19 35 0 60 -19 60 -45 0 -13 -4 -27 -10 -30
-5 -3 -10 -14 -10 -24 0 -9 -10 -37 -22 -62 -27 -52 -37 -158 -44 -468 -3
-134 -1 -208 6 -215 5 -5 10 -30 10 -56 1 -25 7 -63 15 -85 8 -22 15 -59 15
-82 0 -23 5 -45 10 -48 6 -3 10 -19 10 -35 0 -16 5 -32 10 -35 6 -3 10 -24 10
-45 0 -35 13 -77 41 -132 5 -10 9 -27 9 -37 0 -11 5 -23 10 -26 6 -3 10 -20
10 -36 0 -16 11 -47 25 -69 14 -22 25 -51 25 -64 0 -14 5 -28 10 -31 6 -3 10
-17 10 -29 0 -13 7 -29 15 -36 8 -7 15 -23 15 -36 0 -25 14 -55 39 -86 11 -14
29 -18 74 -18 72 0 86 14 87 81 0 36 -5 50 -25 69 -14 13 -25 31 -25 41 0 10
-4 21 -10 24 -5 3 -10 15 -10 26 0 19 -3 27 -34 86 -9 17 -16 43 -16 56 0 14
-4 29 -10 32 -5 3 -10 19 -10 35 0 16 -4 32 -10 35 -5 3 -10 16 -10 29 0 12
-4 26 -10 32 -9 9 -16 34 -35 129 -4 17 -11 39 -15 50 -5 11 -11 52 -13 90 -2
39 -12 106 -23 150 -16 67 -19 115 -18 290 1 210 15 370 34 389 5 5 10 34 10
63 0 63 16 96 40 83 9 -5 76 -10 149 -12 73 -2 135 -6 138 -10 2 -5 16 -8 31
-9 l27 -1 -25 -7 c-19 -5 -26 -14 -28 -39 -3 -27 1 -34 22 -42 14 -5 26 -16
26 -24 0 -27 42 -46 105 -47 33 -1 49 -4 35 -6 -35 -7 -50 -21 -50 -48 0 -38
26 -50 109 -49 49 0 65 -2 46 -7 -72 -16 -86 -27 -83 -61 l3 -33 98 1 c68 1
95 -2 87 -10 -5 -5 -10 -20 -10 -33 0 -30 41 -47 98 -39 46 6 48 5 30 -24 -10
-15 -10 -25 -2 -38 9 -13 22 -16 63 -14 40 3 51 1 51 -11 0 -26 61 -49 142
-54 l77 -5 -1 110 c0 102 -2 112 -20 118 -11 3 -25 1 -31 -5 -6 -6 -26 -11
-43 -11 -18 0 -36 -4 -39 -10 -10 -16 -55 -12 -55 5 0 8 -5 15 -11 15 -5 0 -7
5 -4 10 3 6 18 10 33 10 15 0 40 10 56 23 25 20 27 26 17 45 -13 24 -38 26
-143 13 -31 -4 -54 -3 -52 1 3 4 15 8 28 8 12 0 41 9 65 21 38 18 42 23 39 52
-3 28 -8 33 -38 38 -19 4 -28 7 -19 8 29 2 43 28 31 56 -7 14 -17 25 -23 25
-6 0 -20 11 -31 25 -16 21 -28 25 -71 25 -47 0 -49 1 -31 15 10 8 27 15 37 15
9 0 17 5 17 10 0 6 11 10 24 10 13 0 29 7 36 15 16 19 30 19 30 0 0 -14 45
-101 61 -120 5 -5 9 -16 9 -25 0 -10 30 -52 68 -94 37 -43 79 -94 94 -114 15
-20 31 -41 35 -47 5 -5 15 -23 23 -40 42 -85 157 -234 201 -261 25 -15 89
-110 126 -186 19 -40 46 -85 60 -100 14 -14 22 -31 19 -37 -6 -9 19 -63 58
-124 12 -18 15 -155 18 -854 l3 -832 -23 15 c-33 22 -72 11 -72 -20 0 -18 -11
-29 -42 -46 -24 -12 -45 -25 -48 -29 -3 -3 -27 -17 -53 -31 -80 -40 -111 -97
-66 -121 15 -8 24 -8 32 0 6 6 27 11 47 11 20 0 41 5 48 12 6 6 14 9 18 6 3
-4 -21 -24 -53 -46 -103 -71 -124 -102 -87 -133 22 -18 93 -22 122 -7 19 10
23 18 19 42 -4 27 11 56 28 56 10 0 108 72 122 90 10 12 12 7 13 -32 0 -43 -2
-47 -31 -57 -18 -6 -44 -11 -58 -11 -39 0 -53 -14 -49 -46 3 -25 8 -30 43 -35
22 -3 34 -7 27 -8 -7 0 -58 -33 -113 -72 -115 -81 -144 -125 -98 -149 16 -9
26 -8 44 4 14 9 40 16 59 16 19 0 38 5 41 10 3 6 13 10 21 10 14 0 14 -2 0
-15 -8 -8 -19 -15 -25 -15 -6 0 -11 -4 -11 -10 0 -5 -6 -10 -13 -10 -7 0 -23
-10 -37 -23 -14 -13 -32 -26 -40 -30 -8 -4 -33 -18 -55 -32 -22 -13 -50 -29
-63 -35 -31 -13 -51 -58 -31 -71 18 -11 64 -12 87 0 29 15 93 33 98 28 3 -2
-43 -49 -101 -103 -84 -80 -105 -104 -105 -127 0 -15 7 -30 15 -33 18 -7 85
14 85 27 0 5 10 9 23 9 13 0 42 9 65 20 33 16 42 26 42 45 0 17 -6 25 -17 25
-12 0 3 21 45 63 50 51 62 69 62 95 0 21 -7 36 -20 44 -22 14 -26 28 -9 28 12
0 41 24 90 74 39 38 39 82 2 113 l-28 22 27 25 c15 15 29 26 31 26 3 0 5 -272
6 -604 l2 -605 -24 -38 c-13 -21 -31 -56 -41 -78 -18 -38 -164 -190 -174 -181
-2 3 2 11 9 19 8 8 30 34 48 57 19 23 40 48 46 54 10 11 35 62 69 139 9 21 16
51 16 67 0 16 5 32 10 35 6 3 10 23 10 44 0 20 5 42 11 48 5 5 9 38 7 74 -3
62 -4 64 -30 64 -14 0 -30 3 -34 8 -4 4 -27 7 -50 7 l-43 0 36 35 c33 32 35
38 31 85 -4 36 -2 50 8 50 19 0 54 49 54 76 0 26 -35 43 -53 25 -6 -6 -18 -11
-26 -11 -9 0 2 16 27 39 68 63 55 126 -25 119 -34 -3 -38 -6 -38 -31 -1 -18
-9 -34 -26 -45 -14 -9 -36 -27 -49 -39 -13 -13 -29 -23 -35 -23 -7 0 -24 -11
-39 -25 -14 -13 -46 -38 -71 -55 -31 -22 -45 -38 -45 -54 0 -13 -6 -36 -14
-52 -18 -35 -9 -92 17 -108 13 -8 24 -7 45 5 15 8 36 20 47 26 11 5 31 15 43
22 43 22 33 4 -28 -53 -62 -57 -74 -64 -85 -46 -3 6 -19 10 -34 10 -15 0 -36
7 -47 15 -10 8 -30 15 -44 15 -35 0 -102 25 -93 34 5 4 0 14 -11 21 -15 12
-23 12 -50 0 -17 -7 -39 -16 -49 -19 -22 -7 -20 -55 3 -66 8 -4 26 -13 40 -20
25 -13 63 -25 135 -40 114 -25 110 -23 107 -60 -2 -19 -10 -38 -17 -43 -8 -4
-21 -15 -30 -23 -11 -11 -24 -14 -43 -9 -15 3 -39 9 -54 12 -21 4 -26 10 -25
32 2 26 1 26 -58 22 -70 -4 -91 -13 -101 -43 -5 -16 -1 -27 15 -39 21 -17 17
-18 -131 -23 -203 -7 -300 -15 -316 -29 -7 -5 -12 -24 -10 -41 l3 -31 80 -7
c44 -4 99 -10 122 -13 35 -6 44 -4 55 14 18 30 48 27 48 -4 0 -19 6 -26 28
-30 15 -3 41 -10 57 -16 34 -13 107 -27 175 -36 25 -3 50 -9 55 -13 6 -4 25
-11 43 -15 18 -3 30 -11 26 -16 -7 -12 -129 -12 -154 1 -11 6 -29 14 -40 20
-11 6 -29 10 -39 10 -11 0 -22 4 -26 9 -11 20 -69 41 -110 41 -22 0 -45 4 -51
9 -10 10 -82 17 -281 27 l-132 6 -12 -26 c-11 -23 -9 -29 10 -50 21 -23 29
-24 144 -24 67 0 142 -5 167 -12 25 -7 74 -15 110 -17 36 -3 69 -9 74 -14 6
-5 20 -9 33 -9 13 0 31 -4 41 -9 9 -5 24 -12 32 -16 32 -13 60 -32 54 -38 -10
-10 6 -46 24 -50 9 -3 -20 -5 -65 -6 -45 0 -84 3 -87 8 -3 5 -23 11 -43 14
-21 2 -63 12 -93 22 -30 9 -80 19 -110 22 -30 2 -64 8 -75 13 -11 5 -65 11
-120 14 -139 6 -329 23 -400 35 -78 14 -337 14 -406 0 -60 -11 -174 -27 -259
-35 -30 -3 -59 -10 -64 -15 -6 -5 -32 -9 -58 -9 -36 0 -48 4 -48 15 0 8 -12
17 -27 20 -16 3 -44 11 -63 16 -19 6 -75 9 -125 7 -83 -3 -90 -5 -93 -24 -2
-17 -8 -20 -30 -17 -15 3 -39 10 -53 16 -25 10 -26 15 -25 74 l1 64 -55 31
c-95 53 -107 64 -102 96 3 23 -3 34 -30 56 -101 84 -118 100 -108 106 16 10 0
65 -29 97 -14 17 -35 40 -46 52 l-20 23 25 -3 c24 -4 25 -2 22 41 -2 25 -8 49
-13 55 -5 5 -9 16 -9 24 0 8 -6 22 -13 30 -8 9 -22 42 -31 73 -20 64 -55 108
-87 108 -20 0 -21 -3 -15 -46 3 -26 13 -61 21 -77 21 -42 19 -47 -15 -40 -27
5 -30 3 -30 -21 0 -17 14 -42 40 -70 22 -23 37 -46 33 -49 -3 -4 -11 -3 -17 2
-6 5 -26 11 -43 13 -32 4 -33 3 -33 -31 0 -27 9 -45 38 -75 20 -22 29 -34 20
-27 -24 18 -65 6 -74 -22 -10 -31 -8 -115 3 -130 16 -20 23 -46 13 -52 -5 -3
-16 8 -25 24 -13 26 -15 140 -15 948 0 916 0 918 20 888 11 -16 22 -42 25 -57
10 -42 69 -154 100 -188 23 -25 62 -26 69 -2 6 17 -16 65 -85 189 -42 74 -53
136 -27 152 21 13 130 15 143 2 6 -5 26 -11 45 -13 33 -3 35 -1 33 25 -3 38
-15 52 -77 82 -49 24 -77 47 -193 157 l-53 49 0 102 1 102 23 -29 c19 -23 22
-33 13 -47 -14 -22 20 -75 70 -109 31 -21 45 -50 23 -50 -19 0 -10 -47 14 -67
46 -41 118 -74 150 -71 28 3 31 6 29 36 0 18 -9 42 -19 53 -18 19 -18 21 -1
30 28 16 22 64 -12 91 -15 12 -46 37 -67 55 -59 47 -136 124 -162 161 -13 17
-32 32 -43 32 -17 0 -19 8 -19 93 l0 92 70 -74 c39 -41 70 -76 70 -78 0 -1 -7
-3 -15 -3 -19 0 -19 -29 0 -57 14 -20 90 -63 112 -63 6 0 13 -5 15 -10 5 -17
86 -16 103 1 20 20 5 64 -24 74 -11 3 -75 63 -143 131 -155 158 -171 174 -180
174 -5 0 -8 15 -8 33 l1 32 27 -32 c15 -17 44 -52 65 -77 21 -25 45 -46 53
-46 8 0 14 -4 14 -10 0 -5 5 -10 11 -10 7 0 17 -6 23 -14 6 -7 28 -16 48 -19
34 -5 39 -3 44 18 6 24 -28 75 -51 75 -15 0 -162 159 -181 196 -8 16 -23 36
-34 46 -18 15 -20 29 -20 177 0 96 4 162 10 166 6 3 10 17 10 30 0 13 5 27 10
30 6 3 10 15 10 26 0 10 4 27 9 37 5 9 12 24 15 32 3 8 10 22 14 30 9 16 27
49 47 87 17 33 81 103 94 103 6 0 11 5 11 10 0 6 5 10 12 10 6 0 19 6 27 14
28 25 132 76 156 76 12 0 34 10 49 21 21 16 26 28 24 53 -3 31 -4 31 -68 37
l-65 6 70 3 c39 2 83 3 98 2 43 -3 67 14 67 48 0 21 -7 33 -25 43 -23 12 -20
13 39 9 36 -2 76 -2 90 2 41 10 39 63 -4 79 -8 4 4 5 28 2 40 -3 42 -2 42 25
0 16 -6 32 -12 37 -9 5 -3 9 17 13 27 5 30 9 30 41 0 27 11 48 50 95 28 33 66
83 85 112 34 50 36 51 85 52 28 0 56 -4 64 -9 19 -12 43 -2 37 15 -6 16 39 20
49 4z m589 -5134 c-15 -12 -17 -18 -8 -33 9 -15 29 -19 115 -23 103 -5 103 -5
-66 -11 -215 -8 -394 -26 -411 -40 -21 -17 -18 -69 4 -69 9 0 150 -2 312 -4
162 -1 310 -6 328 -10 29 -7 34 -6 39 13 7 27 43 29 43 2 0 -29 23 -42 85 -48
36 -4 52 -9 43 -14 -20 -13 -526 -11 -648 2 -121 14 -196 4 -194 -24 2 -14 -8
-17 -60 -17 -34 0 -67 5 -73 11 -6 6 -46 15 -89 20 -216 24 -233 28 -194 49
18 9 21 18 16 41 -4 22 -2 29 9 29 9 0 25 5 38 12 48 25 58 28 80 28 13 0 32
7 43 15 10 8 29 15 41 15 12 0 25 5 28 10 3 6 26 10 50 10 24 0 46 4 49 8 3 5
44 12 91 15 47 3 93 11 103 16 9 6 68 11 131 11 102 0 113 -2 95 -14z"/>
<path d="M20989 9269 c-13 -13 -19 -30 -17 -47 3 -26 5 -27 60 -24 48 3 59 1
65 -14 4 -11 -1 -23 -13 -33 -27 -22 -36 -49 -24 -72 8 -15 22 -19 63 -20 37
-1 45 -3 27 -8 -16 -4 -28 -17 -34 -37 -5 -17 -19 -35 -30 -40 -23 -10 -34
-50 -17 -67 18 -18 14 -202 -4 -217 -16 -14 -20 -57 -6 -78 11 -17 62 -12 72
8 4 8 14 31 23 50 15 35 16 35 16 7 0 -18 7 -30 20 -35 23 -8 17 -20 -27 -51
-58 -40 -40 -91 32 -91 l40 0 -42 -36 c-47 -39 -56 -76 -24 -94 25 -13 68 -13
76 0 3 6 13 10 21 10 9 0 -10 -23 -41 -51 -45 -41 -55 -57 -53 -78 3 -25 5
-26 86 -29 45 -2 82 -6 82 -10 0 -5 -7 -17 -15 -28 -20 -26 -19 -80 1 -88 33
-13 113 78 114 129 0 39 -7 48 -52 72 -35 19 -36 20 -16 34 11 8 26 26 34 42
17 32 8 55 -31 81 l-25 17 25 27 c36 38 30 71 -18 96 l-37 20 20 21 c26 27 36
80 20 100 -7 8 -12 37 -12 65 0 28 -4 53 -9 56 -5 3 -9 14 -9 24 0 17 -18 66
-41 112 -5 10 -9 33 -9 51 0 22 -8 41 -24 56 -13 12 -34 42 -46 67 -13 24 -43
63 -67 84 -36 34 -49 40 -88 40 -32 0 -51 -6 -66 -21z"/>
<path d="M20756 8954 c-7 -19 55 -129 101 -181 15 -17 41 -34 56 -37 28 -7 28
-6 21 31 -8 45 -75 154 -111 183 -31 24 -59 26 -67 4z"/>
<path d="M18054 8696 c4 -16 16 -42 29 -57 12 -15 42 -51 66 -80 57 -70 77
-85 96 -69 24 20 18 49 -22 104 -66 91 -115 136 -146 134 -26 -2 -28 -5 -23
-32z"/>
<path d="M21304 8016 c-12 -30 1 -61 25 -64 22 -4 20 -8 -33 -61 -50 -51 -57
-62 -54 -92 3 -34 3 -34 55 -34 59 1 58 -2 -7 -38 -78 -43 -94 -107 -28 -107
l33 0 -33 -17 c-18 -9 -41 -26 -50 -37 -9 -12 -25 -25 -34 -29 -40 -15 -3 -87
45 -87 12 0 40 9 62 20 22 11 42 20 45 20 11 -1 -45 -40 -57 -40 -7 0 -13 -4
-13 -10 0 -5 -5 -10 -11 -10 -13 0 -79 -48 -101 -74 -20 -24 -23 -57 -6 -74 7
-7 32 -12 56 -12 38 0 43 -2 32 -15 -7 -8 -18 -15 -24 -15 -18 0 -86 -70 -86
-89 0 -23 19 -41 45 -41 12 0 26 -5 32 -11 6 -6 26 -9 44 -7 28 2 35 8 37 29
2 15 -4 31 -13 39 -14 12 -12 15 18 29 19 9 53 31 76 50 32 27 41 40 41 65 0
35 -15 56 -41 56 -9 0 -22 7 -29 15 -9 11 -9 15 -1 15 21 0 83 47 97 75 12 23
11 30 -3 52 -9 14 -31 32 -48 39 -16 7 -23 13 -15 14 9 0 23 8 31 18 9 9 33
30 53 45 39 30 47 65 21 87 -11 9 -12 16 -4 26 6 7 9 25 7 41 -3 24 -8 28 -33
28 -17 0 -36 8 -44 18 -12 16 -10 22 15 50 16 17 38 39 49 48 27 23 11 72 -25
77 -14 2 -29 8 -34 13 -16 15 -86 11 -92 -5z"/>
<path d="M19425 14690 c-3 -5 -13 -10 -22 -10 -8 0 -25 -9 -37 -19 -11 -11
-34 -30 -49 -43 -23 -19 -29 -33 -32 -78 -2 -30 -10 -73 -16 -96 -7 -22 -9
-52 -6 -66 10 -38 133 -158 162 -158 13 0 26 -4 30 -9 8 -14 65 -41 86 -41 10
0 21 -4 24 -10 3 -6 52 -10 110 -10 58 0 107 4 110 10 3 6 13 10 22 10 9 0 40
18 68 39 44 33 53 46 57 78 7 58 -7 111 -41 159 -17 25 -31 50 -31 58 0 17
-117 118 -162 139 -20 10 -40 22 -43 27 -3 6 -17 10 -30 10 -13 0 -27 5 -30
10 -3 6 -42 10 -85 10 -43 0 -82 -4 -85 -10z m200 -191 c17 -10 39 -23 50 -28
11 -5 40 -29 64 -54 33 -35 42 -50 36 -66 -6 -21 -12 -22 -108 -19 l-102 3 -1
77 c-1 43 -4 85 -8 93 -8 21 32 18 69 -6z"/>
<path d="M1040 13660 l0 -790 -450 0 -450 0 0 -35 0 -35 445 0 c389 0 445 -2
445 -15 0 -13 -56 -15 -445 -15 l-446 0 3 -157 3 -158 448 -3 447 -2 0 -4670
0 -4670 -443 0 -444 0 3 -23 c1 -12 3 -28 3 -34 1 -10 95 -13 436 -13 380 0
435 -2 435 -15 0 -13 -55 -15 -435 -15 -283 0 -435 -4 -436 -10 -1 -5 -1 -19
-1 -30 0 -11 0 -78 1 -150 l1 -130 440 0 440 0 0 -686 0 -685 33 3 32 3 3 683
c1 443 6 682 12 682 7 0 10 -228 10 -654 0 -359 3 -668 6 -685 l7 -31 156 2
156 3 3 682 2 683 160 0 160 0 0 -685 0 -685 35 0 35 0 0 685 c0 602 2 685 15
685 13 0 15 -83 15 -685 l0 -685 160 0 160 0 0 685 0 685 3634 0 c3291 0 3636
1 3650 16 19 18 19 18 6 106 -6 43 -6 85 0 119 7 37 7 56 -1 65 -10 12 -587
14 -3559 14 -1951 0 -3588 3 -3638 6 -51 4 -92 11 -92 15 0 5 1637 9 3638 9
2816 0 3641 3 3650 12 7 7 12 22 12 35 l0 23 -3650 0 -3650 0 0 4670 0 4670
8474 0 c5563 0 8477 3 8481 10 3 5 3 77 -1 160 l-7 150 -8473 0 c-7524 0
-8474 2 -8474 15 0 13 951 15 8473 17 l8472 3 3 35 3 35 -8476 -3 -8475 -2 0
790 0 790 -160 0 -160 0 0 -785 c0 -691 -2 -785 -15 -785 -13 0 -15 94 -15
785 l0 785 -35 0 -35 0 0 -790 0 -790 -160 0 -160 0 0 790 0 790 -165 0 -165
0 0 -785 c0 -517 -3 -785 -10 -785 -7 0 -10 268 -10 785 l0 785 -35 0 -35 0 0
-790z m90 -5875 c0 -3103 -3 -4665 -10 -4665 -7 0 -10 1562 -10 4665 0 3103 3
4665 10 4665 7 0 10 -1562 10 -4665z m650 -5 l0 -4670 -160 0 -160 0 0 4670 0
4670 160 0 160 0 0 -4670z m100 5 c0 -4140 -2 -4665 -15 -4665 -13 0 -15 525
-15 4665 0 4140 2 4665 15 4665 13 0 15 -525 15 -4665z"/>
<path d="M19625 13383 c-16 -9 -46 -33 -67 -54 -31 -33 -37 -47 -42 -99 -3
-33 -9 -87 -12 -120 -4 -45 -2 -70 10 -95 24 -49 94 -135 119 -144 12 -5 31
-18 41 -30 11 -11 25 -21 33 -21 7 0 13 -4 13 -10 0 -5 7 -10 15 -10 8 0 24
-4 35 -10 11 -5 29 -14 40 -20 35 -18 147 -12 192 10 23 11 47 20 53 20 16 0
78 69 99 110 15 29 17 54 15 135 -4 96 -5 102 -39 149 -34 47 -183 160 -240
182 -8 3 -23 10 -32 15 -29 15 -199 9 -233 -8z m210 -153 c3 -5 15 -10 26 -10
28 0 122 -62 148 -98 24 -34 29 -116 8 -143 -29 -38 -65 -51 -117 -44 -27 4
-52 11 -56 16 -3 5 -16 9 -28 9 -29 0 -72 21 -71 35 0 5 15 25 33 43 40 42 49
75 28 107 -9 13 -16 40 -16 60 0 28 4 35 19 35 11 0 23 -4 26 -10z"/>
<path d="M20696 13295 c-15 -8 -37 -15 -48 -15 -57 0 -218 -164 -218 -222 0
-13 -7 -33 -15 -44 -10 -13 -14 -45 -15 -100 0 -103 24 -162 82 -204 38 -28
47 -30 133 -30 64 0 96 4 103 13 6 7 27 19 47 27 19 7 35 17 35 22 0 4 5 8 12
8 18 0 130 123 152 167 10 21 25 50 32 65 9 16 14 57 14 105 0 80 0 80 -38
114 -38 33 -50 41 -124 73 -20 9 -40 21 -43 26 -9 15 -76 12 -109 -5z m174
-220 c0 -28 -18 -66 -37 -78 -7 -4 -13 -14 -13 -21 0 -28 -26 -64 -67 -92 -24
-16 -43 -32 -43 -36 0 -5 -8 -8 -18 -8 -10 0 -23 -5 -29 -11 -17 -17 -75 13
-93 46 -11 21 -12 30 -2 45 7 11 12 26 12 34 0 7 7 19 15 26 9 7 13 15 10 18
-3 3 0 11 6 18 8 10 17 9 45 -7 19 -10 43 -19 53 -19 30 0 81 30 99 58 37 59
62 70 62 27z"/>
<path d="M21080 12847 c0 -13 5 -28 12 -35 9 -9 727 -12 3170 -12 l3158 0 0
35 0 35 -3170 0 -3170 0 0 -23z"/>
<path d="M21092 12758 c-8 -8 -12 -56 -12 -148 0 -92 4 -140 12 -148 9 -9 727
-12 3170 -12 l3158 0 0 160 0 160 -3158 0 c-2443 0 -3161 -3 -3170 -12z"/>
<path d="M19650 12740 c-8 -5 -33 -10 -55 -10 -55 0 -124 -50 -125 -90 0 -9
-5 -21 -10 -26 -6 -6 -11 -51 -12 -100 -1 -79 2 -94 23 -129 14 -22 29 -47 34
-56 55 -90 127 -164 191 -194 19 -9 34 -20 34 -25 0 -6 13 -10 29 -10 17 0 33
-4 36 -10 3 -5 41 -10 83 -9 58 0 84 5 107 20 17 10 37 21 45 25 35 13 46 22
59 50 8 16 18 37 23 46 4 10 8 29 8 42 0 14 5 28 10 31 6 3 10 28 10 55 0 27
-4 52 -10 55 -5 3 -10 15 -10 26 0 59 -181 239 -309 306 -27 15 -139 17 -161
3z m199 -199 c15 -14 46 -43 69 -63 75 -68 93 -139 48 -190 -21 -25 -30 -28
-85 -28 -56 0 -75 5 -121 32 -8 5 -23 11 -32 14 -10 4 -18 10 -18 15 0 5 -5 9
-12 9 -11 0 -68 58 -68 70 0 4 22 6 49 6 27 -1 53 2 56 6 8 8 24 72 32 130 5
34 7 37 29 32 14 -4 37 -18 53 -33z"/>
<path d="M7700 10774 c-8 -3 -26 -10 -40 -16 -14 -6 -34 -14 -45 -18 -11 -5
-27 -11 -35 -14 -8 -3 -33 -17 -55 -31 -22 -14 -47 -28 -55 -32 -21 -9 -88
-78 -135 -138 -95 -120 -135 -179 -135 -197 0 -9 -4 -20 -10 -23 -5 -3 -10
-13 -10 -21 0 -8 -11 -32 -25 -54 -14 -22 -25 -51 -25 -65 0 -14 -4 -25 -10
-25 -5 0 -10 -13 -10 -29 0 -17 -4 -33 -10 -36 -5 -3 -10 -17 -10 -29 0 -13
-7 -29 -15 -36 -8 -7 -15 -23 -15 -36 0 -12 -4 -26 -10 -29 -5 -3 -10 -17 -10
-30 0 -13 -4 -27 -10 -30 -5 -3 -10 -17 -10 -29 0 -13 -7 -29 -15 -36 -8 -7
-15 -25 -15 -41 0 -15 -4 -31 -10 -34 -5 -3 -10 -21 -10 -40 0 -19 -4 -37 -10
-40 -5 -3 -10 -21 -10 -38 0 -18 -7 -41 -15 -51 -8 -11 -15 -34 -15 -52 0 -18
-4 -36 -10 -39 -5 -3 -10 -19 -10 -35 0 -16 -4 -32 -10 -35 -5 -3 -10 -21 -10
-38 0 -18 -6 -41 -14 -52 -14 -21 -23 -69 -32 -170 -3 -33 -10 -64 -15 -69 -5
-6 -9 -36 -9 -67 0 -38 -5 -61 -15 -69 -11 -9 -15 -33 -15 -84 0 -40 -4 -76
-9 -82 -5 -5 -12 -54 -15 -109 -4 -55 -9 -145 -12 -200 -3 -60 -10 -103 -17
-107 -15 -9 -27 -206 -33 -558 -3 -150 -9 -269 -14 -274 -6 -6 -10 -496 -10
-1337 l0 -1327 31 -31 c17 -17 36 -31 44 -31 7 0 18 -7 25 -15 15 -18 189 -22
206 -5 6 6 25 19 43 28 49 27 92 123 72 161 -6 11 -11 42 -11 68 0 27 -4 53
-9 58 -5 6 -11 77 -13 159 -2 108 -6 151 -15 154 -10 3 -13 51 -13 196 0 110
-4 196 -10 202 -18 18 -38 1410 -20 1428 6 6 10 64 10 137 0 75 4 130 10 134
6 3 10 16 10 28 0 14 11 29 29 40 27 16 84 17 699 17 583 0 671 -2 682 -15 7
-9 29 -15 51 -15 l39 0 0 -94 c0 -71 -4 -97 -15 -106 -13 -11 -15 -111 -20
-729 -6 -890 -13 -1233 -25 -1245 -6 -6 -10 -98 -10 -218 0 -167 -3 -213 -15
-231 -13 -20 -13 -26 0 -51 8 -16 15 -34 15 -40 0 -15 36 -46 54 -46 7 0 19
-7 26 -15 9 -11 33 -15 85 -15 52 0 76 4 85 15 7 8 17 15 22 15 6 0 23 9 38
20 l29 21 6 147 c3 81 8 473 11 870 4 619 6 727 19 745 21 30 21 199 0 221
-13 13 -15 95 -15 618 0 379 -4 608 -10 614 -6 6 -11 156 -14 369 -7 482 -17
717 -33 723 -10 3 -13 42 -13 152 0 89 -4 151 -10 155 -6 4 -10 53 -10 115 0
62 -4 111 -10 115 -5 3 -10 37 -10 75 0 48 -5 73 -15 84 -9 9 -15 33 -15 65 0
27 -4 53 -10 56 -5 3 -10 24 -10 45 0 21 -4 42 -10 45 -5 3 -10 21 -10 39 0
18 -7 41 -15 52 -8 10 -15 31 -15 46 0 15 -4 30 -10 33 -5 3 -10 15 -10 26 0
10 -4 27 -9 37 -5 9 -12 24 -15 32 -4 8 -17 33 -31 55 -14 22 -30 50 -35 63
-5 12 -14 22 -20 22 -5 0 -10 6 -10 13 0 6 -17 30 -38 53 -20 23 -54 60 -74
83 -20 22 -40 41 -44 41 -3 0 -29 16 -55 35 -27 19 -56 35 -64 35 -8 0 -15 5
-15 10 0 6 -13 10 -28 10 -15 0 -34 6 -40 13 -9 8 -67 13 -205 14 -106 1 -199
0 -207 -3z m295 -304 c3 -5 20 -16 38 -25 52 -25 140 -116 174 -182 6 -12 18
-35 26 -50 38 -73 57 -116 57 -128 0 -7 7 -18 15 -25 8 -7 15 -23 15 -36 0
-12 5 -26 10 -29 6 -3 10 -19 10 -35 0 -16 5 -32 10 -35 6 -3 10 -21 10 -40 0
-18 7 -40 15 -49 8 -8 15 -30 15 -50 0 -19 5 -38 10 -41 6 -3 10 -28 10 -55 0
-27 5 -52 10 -55 6 -3 10 -28 10 -54 0 -26 7 -56 15 -67 10 -13 14 -44 15 -96
0 -42 5 -80 10 -83 6 -4 10 -82 10 -200 0 -118 4 -196 10 -200 6 -4 10 -150
10 -403 1 -325 3 -402 15 -422 9 -16 14 -55 15 -107 l0 -83 -33 0 c-18 0 -42
-7 -53 -15 -29 -22 -748 -22 -790 0 -24 12 -82 15 -322 15 -286 0 -292 0 -282
19 5 11 10 67 10 125 0 59 4 108 10 111 6 3 10 52 10 110 0 58 4 107 10 110 6
3 10 44 10 91 0 49 5 95 12 107 12 20 20 87 34 262 3 39 10 74 15 80 5 5 9 40
9 78 0 47 5 73 15 83 10 11 15 36 15 84 0 38 5 72 10 75 6 3 10 35 10 70 0 35
5 67 10 70 6 3 10 30 10 58 0 30 7 60 15 71 8 11 15 32 15 47 0 15 5 31 10 34
6 3 10 24 10 45 0 21 5 42 10 45 6 3 10 21 10 38 0 18 7 41 15 51 8 11 15 32
15 47 0 15 5 31 10 34 6 3 10 15 10 26 0 10 4 27 9 37 5 9 17 33 26 52 9 19
24 49 35 65 10 17 19 38 19 48 1 9 5 17 9 17 5 0 14 10 20 23 12 24 41 69 84
134 48 73 175 183 211 183 8 0 20 7 27 15 9 11 34 15 101 15 48 0 91 -4 94
-10z"/>
<path d="M12865 10740 c-4 -7 -243 -10 -683 -10 -579 -1 -680 -3 -696 -15 -17
-13 -76 -15 -361 -15 l-340 0 -38 -31 c-37 -30 -37 -31 -37 -103 0 -65 3 -75
28 -102 49 -52 57 -54 276 -54 126 0 207 4 211 10 32 52 36 -76 36 -1120 0
-909 -6 -1198 -28 -1237 -10 -16 -13 -114 -13 -390 0 -309 2 -372 15 -389 12
-16 14 -81 15 -402 0 -289 -3 -389 -12 -405 -8 -13 -16 -86 -20 -182 -5 -88
-12 -230 -18 -315 -5 -85 -12 -203 -16 -262 -4 -75 -10 -110 -20 -119 -8 -7
-14 -29 -14 -55 0 -23 -4 -46 -10 -49 -5 -3 -10 -18 -10 -32 0 -34 -16 -85
-46 -148 -14 -27 -24 -55 -24 -61 0 -19 -89 -104 -109 -104 -11 0 -23 -4 -26
-10 -3 -5 -33 -10 -65 -10 -32 0 -62 4 -65 10 -3 6 -19 10 -36 10 -16 0 -29 5
-29 10 0 6 -7 10 -15 10 -8 0 -15 5 -15 10 0 6 -11 15 -24 20 -13 4 -44 39
-69 77 -45 66 -79 103 -96 103 -5 0 -14 7 -21 15 -9 11 -32 15 -82 15 -52 0
-70 -4 -74 -15 -4 -8 -17 -15 -30 -15 -13 0 -24 -4 -24 -8 0 -5 -10 -14 -23
-21 -41 -22 -73 -100 -47 -116 6 -3 10 -13 10 -22 0 -8 9 -25 20 -37 10 -11
36 -41 56 -66 36 -44 158 -143 198 -161 12 -5 28 -13 36 -18 8 -5 29 -14 45
-21 17 -7 38 -16 47 -21 10 -5 27 -9 39 -9 11 0 27 -7 35 -15 23 -22 312 -22
320 0 4 8 17 15 30 15 13 0 32 4 42 9 9 5 34 18 55 28 66 31 77 37 77 45 0 5
6 8 13 8 16 0 110 97 147 150 13 19 27 37 30 40 6 4 26 41 51 92 5 10 9 23 9
29 0 6 7 17 15 25 8 9 15 31 15 49 0 19 5 37 10 40 6 3 10 21 10 40 0 19 5 37
10 40 6 3 10 23 10 43 0 20 7 46 15 56 10 13 15 43 15 86 0 36 4 70 9 75 16
16 22 221 27 875 3 472 7 616 17 622 18 11 18 919 0 926 -10 3 -13 44 -13 162
0 95 -4 161 -10 165 -6 4 -10 178 -10 490 0 312 4 486 10 490 6 4 10 177 10
486 l0 479 119 0 c69 0 122 4 126 10 4 6 109 10 284 10 228 0 281 3 297 15 15
11 53 14 172 15 l152 0 0 -592 c-1 -506 -3 -596 -15 -612 -11 -14 -15 -46 -15
-112 0 -51 -4 -96 -10 -99 -6 -4 -10 -142 -10 -380 0 -238 4 -376 10 -380 6
-4 10 -82 10 -200 0 -118 -4 -196 -10 -200 -7 -4 -10 -235 -10 -660 0 -425 3
-656 10 -660 6 -4 10 -55 10 -120 0 -65 -4 -116 -10 -120 -6 -4 -10 -107 -10
-275 0 -168 -4 -271 -10 -275 -6 -4 -10 -80 -10 -196 0 -156 -3 -193 -15 -205
-12 -12 -15 -44 -15 -154 0 -82 -4 -141 -10 -145 -16 -10 -12 -128 6 -163 24
-49 92 -102 130 -102 18 0 36 -5 39 -10 8 -13 72 -13 80 0 3 6 19 10 34 10 38
0 75 20 111 61 l30 34 0 156 c0 121 -3 159 -15 175 -12 16 -14 67 -15 286 0
167 -4 269 -10 273 -6 4 -10 162 -10 440 0 278 4 436 10 440 6 4 10 93 10 233
1 184 3 231 15 246 12 15 15 52 15 156 0 104 -3 141 -15 156 -21 28 -22 826
-1 844 16 12 21 82 32 404 3 105 1 163 -6 170 -6 6 -10 62 -10 135 -1 90 -5
133 -15 151 -12 21 -14 126 -14 645 0 519 2 624 14 645 20 36 19 144 -2 178
-34 54 -56 72 -89 72 -18 0 -36 5 -39 10 -3 6 -19 10 -35 10 -16 0 -32 -4 -35
-10z"/>
<path d="M24375 10740 c-3 -5 -26 -10 -49 -10 -27 0 -48 -6 -56 -15 -7 -8 -18
-15 -24 -15 -7 0 -22 -11 -35 -24 -21 -23 -22 -27 -17 -252 6 -306 24 -625 36
-646 15 -27 13 -345 -2 -350 -10 -4 -15 -157 -20 -694 -4 -379 -10 -728 -14
-776 l-5 -88 -737 0 c-597 1 -740 3 -754 14 -11 8 -18 27 -18 47 0 19 -7 47
-15 63 -13 24 -15 96 -15 457 0 274 -4 430 -10 434 -6 4 -10 228 -10 640 0
412 4 636 10 640 6 4 10 88 10 219 l0 212 -32 30 c-18 16 -43 35 -55 42 -27
15 -209 17 -218 2 -3 -5 -14 -10 -24 -10 -21 0 -73 -54 -89 -93 -15 -34 -16
-94 -2 -102 6 -4 10 -65 10 -150 0 -85 4 -146 10 -150 6 -4 10 -65 10 -148 1
-109 4 -147 15 -161 12 -15 15 -52 15 -157 0 -81 4 -140 10 -144 6 -4 10 -232
10 -650 0 -418 4 -646 10 -650 6 -4 10 -58 10 -130 0 -72 -4 -126 -10 -130 -6
-4 -10 -103 -10 -265 0 -162 4 -261 10 -265 6 -3 10 -41 10 -84 0 -52 5 -83
15 -97 10 -14 14 -48 15 -126 0 -60 4 -110 10 -113 7 -4 10 -374 10 -1078 l0
-1073 23 -19 c12 -11 33 -26 46 -32 28 -16 211 -18 211 -3 0 6 6 10 14 10 7 0
21 11 30 25 14 21 16 60 16 268 0 144 -4 247 -10 253 -5 5 -11 137 -14 314 -8
535 -23 931 -35 943 -16 16 -16 598 0 614 7 7 14 67 17 150 2 76 9 143 14 150
5 7 7 17 4 22 -12 19 704 39 739 21 20 -11 438 -8 653 5 l102 6 0 -93 c0 -62
4 -98 13 -107 15 -15 13 -1199 -3 -1215 -6 -6 -10 -169 -10 -442 0 -278 -4
-435 -10 -439 -6 -4 -10 -75 -10 -179 0 -184 10 -233 51 -243 11 -3 19 -9 19
-14 0 -5 17 -9 37 -9 20 0 45 -7 54 -16 17 -15 20 -15 43 0 14 9 37 16 51 16
34 0 70 25 94 64 19 30 20 46 14 429 -3 218 -10 397 -15 397 -14 0 -10 1474 4
1488 6 6 14 50 16 97 3 47 8 88 13 91 13 8 12 561 -1 569 -6 4 -10 72 -10 170
0 98 4 166 10 170 6 4 10 180 10 495 0 315 -4 491 -10 495 -5 3 -10 26 -10 50
0 24 5 47 10 50 6 4 10 118 10 310 0 192 4 306 10 310 6 4 10 55 10 120 0 77
4 115 12 117 7 3 13 54 16 159 4 134 2 160 -13 190 -23 45 -64 78 -97 79 -15
0 -30 5 -33 10 -3 6 -24 10 -45 10 -21 0 -42 -4 -45 -10z"/>
<path d="M2927 10702 l-27 -28 0 -1271 c0 -700 4 -1274 9 -1277 4 -3 11 -47
14 -98 3 -51 11 -94 17 -96 14 -5 14 -2104 -1 -2119 -7 -7 -13 -103 -16 -262
-4 -139 -10 -254 -15 -257 -4 -3 -8 -92 -8 -198 l0 -193 28 -14 c15 -8 31 -20
35 -26 4 -7 19 -13 32 -13 14 0 25 -4 25 -10 0 -5 18 -10 39 -10 22 0 43 -4
46 -10 3 -5 23 -10 44 -10 21 0 52 -7 67 -15 43 -22 875 -22 898 0 8 8 28 15
45 15 16 0 33 5 36 10 3 6 19 10 35 10 16 0 32 4 35 10 3 6 15 10 26 10 11 0
22 7 25 15 4 8 17 15 30 15 13 0 24 5 24 10 0 6 11 10 25 10 14 0 25 5 25 10
0 6 8 10 19 10 10 0 23 6 29 13 6 7 27 19 47 27 19 7 35 17 35 22 0 4 7 8 15
8 9 0 18 7 21 15 4 8 12 15 20 15 8 0 14 5 14 10 0 6 6 10 13 10 15 0 204 191
237 240 13 19 30 39 37 43 7 4 13 17 13 27 0 11 5 20 10 20 6 0 10 7 10 15 0
9 11 33 25 55 14 22 25 46 25 55 0 8 5 15 10 15 6 0 10 7 10 15 0 15 3 23 33
83 9 19 17 46 17 62 0 16 5 32 10 35 6 3 10 28 10 54 0 26 4 61 10 77 5 16 11
52 13 79 2 28 9 60 15 72 16 28 17 484 2 499 -6 6 -13 53 -16 105 -3 52 -10
98 -15 104 -5 5 -9 30 -9 56 0 26 -4 51 -10 54 -5 3 -10 22 -10 41 0 20 -5 45
-12 57 -7 12 -14 33 -16 47 -2 14 -7 27 -13 28 -5 2 -9 19 -9 38 0 19 -4 34
-10 34 -5 0 -10 13 -10 29 0 16 -7 34 -15 41 -8 7 -13 16 -10 20 3 5 -2 15
-10 23 -8 9 -15 20 -15 26 0 14 -64 127 -80 141 -3 3 -19 23 -36 45 -38 52
-170 184 -214 215 -19 13 -39 30 -43 37 -4 7 -15 13 -22 13 -8 0 -15 5 -15 10
0 6 -9 10 -20 10 -11 0 -20 5 -20 10 0 6 -9 10 -19 10 -10 0 -21 7 -25 15 -3
8 -14 15 -25 15 -11 0 -23 5 -26 10 -3 6 -17 10 -30 10 -13 0 -27 5 -30 10 -3
6 -17 10 -30 10 -12 0 -25 7 -29 15 -3 9 -18 15 -35 15 -16 0 -33 5 -36 10 -3
6 -19 10 -35 10 -16 0 -32 5 -35 10 -3 6 -36 10 -73 10 -43 1 -74 6 -86 15
-14 10 -45 15 -102 15 -46 0 -86 5 -89 10 -3 6 -46 10 -95 10 -49 0 -92 5 -95
10 -4 6 -67 10 -156 10 l-150 0 6 213 c14 564 15 687 6 687 -18 0 -23 155 -27
870 -3 450 -8 718 -14 724 -6 6 -10 18 -10 28 0 17 15 18 229 18 143 0 232 -4
236 -10 4 -6 90 -10 226 -10 183 0 223 -3 235 -15 13 -13 66 -15 350 -15 288
0 335 2 340 15 4 8 14 15 23 15 21 0 63 44 85 89 21 44 20 53 -5 95 -23 39
-59 66 -88 66 -11 0 -23 5 -26 10 -4 6 -88 10 -220 10 -132 0 -216 4 -220 10
-4 6 -188 10 -519 10 -435 0 -515 2 -532 15 -15 11 -58 14 -215 15 l-195 0
-27 -28z m808 -3072 c3 -5 39 -10 80 -10 41 0 77 -4 80 -10 3 -5 28 -10 54
-10 31 0 53 -5 61 -15 7 -9 29 -15 51 -15 22 0 39 -4 39 -10 0 -5 11 -10 25
-10 14 0 33 -4 43 -9 9 -5 24 -12 32 -15 8 -3 22 -10 30 -15 8 -5 29 -15 45
-22 80 -36 275 -202 275 -234 0 -5 11 -22 25 -37 14 -15 25 -34 25 -43 0 -8 5
-15 10 -15 6 0 10 -9 10 -20 0 -10 6 -23 13 -27 12 -8 24 -31 48 -90 6 -16 15
-36 20 -45 5 -10 9 -26 9 -35 0 -10 7 -31 15 -47 8 -15 15 -41 15 -57 0 -15 5
-31 10 -34 6 -3 10 -30 10 -59 0 -28 4 -56 9 -61 5 -6 11 -55 13 -109 3 -65 8
-101 16 -104 16 -5 17 -433 1 -449 -6 -6 -14 -44 -17 -83 -2 -39 -9 -73 -13
-76 -5 -3 -9 -23 -9 -44 0 -21 -4 -42 -10 -45 -5 -3 -10 -19 -10 -34 0 -16 -7
-34 -15 -41 -8 -7 -15 -21 -15 -31 0 -11 -4 -27 -9 -37 -5 -9 -15 -30 -22 -47
-7 -16 -28 -54 -46 -83 -18 -29 -33 -55 -33 -59 0 -9 -100 -125 -129 -148 -13
-11 -38 -32 -55 -47 -16 -15 -45 -35 -63 -43 -18 -9 -33 -20 -33 -25 0 -6 -9
-10 -20 -10 -11 0 -20 -4 -20 -10 0 -5 -9 -10 -19 -10 -11 0 -23 -4 -26 -10
-3 -5 -15 -10 -25 -10 -10 0 -31 -6 -47 -14 -72 -36 -107 -45 -213 -53 -36 -3
-70 -9 -76 -14 -16 -13 -445 -12 -458 1 -5 5 -41 10 -78 10 l-68 0 0 29 c0 17
5 33 10 36 6 4 10 99 10 254 0 184 3 250 13 260 17 17 17 973 -1 979 -9 3 -12
112 -12 457 0 292 -4 456 -10 460 -5 3 -10 28 -10 56 l0 49 229 0 c143 0 232
-4 236 -10z"/>
<path d="M14770 10691 c-8 -5 -28 -15 -44 -22 -15 -8 -32 -23 -37 -35 -4 -12
-13 -25 -18 -29 -17 -10 -14 -207 4 -241 13 -25 15 -111 15 -586 0 -360 4
-559 10 -563 7 -4 10 -280 10 -795 0 -515 -3 -791 -10 -795 -6 -4 -10 -123
-10 -323 -1 -256 -3 -322 -15 -342 -21 -37 -21 -436 0 -476 13 -25 15 -138 15
-814 1 -615 3 -790 13 -808 23 -41 101 -72 184 -72 42 0 73 4 73 10 0 6 10 10
23 10 12 0 39 14 60 31 l37 31 -1 733 c0 523 2 739 10 754 13 23 9 450 -7 906
l-9 260 23 31 c13 17 24 37 24 44 0 7 16 34 35 60 19 26 35 52 35 57 0 5 9 19
21 32 l21 22 17 -23 c9 -13 23 -36 30 -53 32 -70 46 -95 53 -95 5 0 8 -7 8
-15 0 -8 9 -30 20 -50 11 -20 20 -42 20 -51 0 -8 7 -17 15 -20 8 -4 15 -12 15
-18 0 -10 32 -79 60 -126 4 -8 20 -40 35 -70 14 -30 29 -62 34 -70 15 -28 34
-65 44 -85 6 -11 14 -27 18 -35 5 -8 24 -46 44 -85 19 -38 51 -97 69 -130 35
-62 70 -125 100 -182 10 -18 21 -35 27 -38 5 -4 9 -13 9 -22 0 -9 10 -30 23
-47 13 -17 30 -46 38 -63 8 -18 17 -33 21 -33 5 0 8 -8 9 -17 0 -10 9 -31 19
-48 19 -31 44 -80 62 -125 6 -14 14 -32 19 -40 11 -19 38 -77 51 -110 6 -14
14 -32 19 -40 5 -8 16 -31 25 -50 9 -19 24 -51 34 -70 10 -19 26 -51 35 -70 9
-19 25 -51 35 -70 19 -36 43 -86 63 -130 6 -14 22 -42 34 -62 13 -21 23 -44
23 -51 0 -14 29 -78 39 -87 6 -5 27 -49 43 -90 6 -14 14 -32 19 -40 5 -8 12
-22 15 -30 3 -8 10 -23 15 -32 5 -10 9 -25 9 -33 0 -8 4 -23 9 -33 12 -23 62
-132 71 -157 7 -18 22 -53 52 -125 6 -14 14 -33 19 -42 5 -10 9 -23 9 -29 0
-7 16 -32 36 -55 l35 -44 134 0 c101 0 136 3 142 13 4 8 16 16 26 20 9 3 17
16 17 27 0 11 5 20 10 20 6 0 10 22 10 48 0 42 -19 85 -151 348 -199 393 -201
398 -211 402 -4 2 -8 9 -8 16 0 16 -52 120 -62 124 -4 2 -8 9 -8 16 0 16 -52
120 -62 124 -4 2 -8 9 -8 15 0 10 -96 214 -121 257 -4 8 -22 43 -39 77 -17 34
-35 65 -40 68 -6 3 -10 15 -10 26 0 10 -4 19 -10 19 -5 0 -10 6 -10 13 0 18
-28 75 -41 82 -5 4 -9 15 -9 26 0 10 -4 19 -10 19 -5 0 -10 6 -10 13 0 18 -28
75 -41 82 -5 4 -9 15 -9 26 0 10 -4 19 -10 19 -5 0 -10 9 -10 19 0 11 -4 23
-10 26 -5 3 -10 14 -10 24 0 10 -7 24 -15 31 -8 7 -15 21 -15 31 0 11 -4 27
-9 37 -5 9 -14 31 -21 47 -7 17 -16 37 -21 45 -5 8 -12 22 -15 30 -3 8 -10 23
-15 32 -5 10 -9 25 -9 33 0 8 -4 15 -10 15 -5 0 -10 6 -10 12 0 7 -12 38 -26
68 -15 30 -30 64 -35 75 -29 75 -44 105 -51 105 -4 0 -8 7 -8 15 0 8 -4 23 -9
33 -18 38 -64 138 -71 157 -17 47 -28 73 -54 125 -14 30 -26 61 -26 68 0 7 -7
15 -15 18 -8 4 -13 10 -10 14 3 5 1 11 -5 15 -5 3 -17 23 -26 43 -9 20 -24 53
-35 72 -10 19 -26 52 -36 73 -10 20 -21 37 -25 37 -5 0 -8 5 -8 12 0 6 -6 19
-14 27 -8 9 -26 39 -40 66 -15 28 -32 58 -39 68 -8 11 -9 20 -2 25 14 10 135
189 135 199 0 5 11 17 25 27 14 10 25 27 25 37 0 9 4 19 9 21 9 3 151 202 151
212 0 3 10 17 21 30 12 14 27 33 33 44 16 27 43 67 100 142 26 36 52 74 57 85
5 11 23 38 40 60 31 42 77 107 94 134 14 22 98 144 108 156 18 23 107 157 107
162 0 2 20 33 45 67 25 35 45 66 45 70 0 3 10 17 21 30 12 14 27 33 33 44 6
11 28 45 49 76 20 31 37 58 37 61 0 7 58 104 91 152 16 23 29 44 29 48 0 4 8
19 19 33 10 15 29 47 43 72 14 25 35 61 46 80 12 19 28 51 37 70 22 47 28 58
58 113 15 26 27 52 27 58 0 6 7 18 16 27 12 11 15 28 12 64 -4 39 -11 53 -39
78 -19 16 -42 30 -51 30 -9 0 -20 5 -23 10 -9 15 -78 12 -113 -5 -17 -9 -50
-39 -74 -68 -24 -29 -49 -58 -55 -65 -7 -7 -13 -17 -13 -21 0 -4 -8 -16 -18
-27 -19 -20 -100 -125 -117 -152 -18 -28 -40 -55 -57 -71 -10 -8 -18 -20 -18
-26 0 -6 -8 -20 -18 -31 -20 -21 -101 -127 -117 -152 -5 -9 -24 -32 -42 -51
-18 -20 -38 -47 -45 -61 -7 -14 -16 -27 -19 -30 -3 -3 -19 -27 -34 -55 -16
-27 -43 -71 -62 -96 -18 -26 -33 -54 -33 -62 0 -8 -4 -17 -8 -19 -11 -4 -82
-115 -82 -127 0 -5 -7 -11 -15 -15 -8 -3 -15 -10 -15 -15 0 -6 -36 -67 -80
-136 -44 -69 -80 -128 -80 -131 0 -4 -16 -28 -35 -54 -19 -26 -35 -53 -35 -59
0 -6 -9 -21 -20 -34 -23 -27 -58 -83 -66 -109 -4 -10 -10 -18 -14 -18 -5 0
-15 -12 -22 -27 -19 -38 -42 -77 -48 -83 -11 -10 -60 -90 -60 -96 0 -4 -11
-22 -25 -40 -14 -18 -25 -36 -25 -39 0 -4 -16 -29 -35 -55 -19 -26 -35 -51
-35 -55 0 -4 -16 -29 -35 -55 -19 -26 -35 -51 -35 -55 0 -4 -10 -21 -22 -38
-13 -18 -29 -42 -35 -54 -27 -48 -40 -70 -81 -133 -23 -36 -48 -72 -57 -81 -8
-9 -15 -21 -15 -29 0 -10 -3 -10 -15 0 -13 11 -15 66 -15 384 0 261 3 375 11
383 8 8 13 220 17 728 3 393 9 718 13 721 13 7 11 211 -1 219 -5 3 -10 14 -10
23 -1 24 -31 57 -74 81 -30 17 -54 21 -129 20 -51 0 -99 -4 -107 -8z"/>
<path d="M15737 4251 c-53 -26 -145 -64 -205 -85 -134 -46 -194 -80 -276 -156
-78 -74 -136 -178 -168 -306 -22 -86 -23 -102 -21 -533 2 -457 9 -575 44 -710
47 -178 152 -332 267 -388 76 -37 191 -40 265 -6 209 96 345 473 307 853 -29
283 -147 508 -308 587 -77 37 -182 39 -257 3 -49 -24 -145 -110 -178 -160
l-16 -25 0 40 c-1 81 19 241 39 313 26 94 61 163 112 218 54 59 83 75 222 124
115 40 287 118 354 159 27 18 32 27 32 59 0 50 -14 62 -69 61 -33 0 -73 -14
-144 -48z m-162 -877 c53 -25 124 -108 161 -189 56 -122 78 -228 78 -390 1
-249 -64 -447 -182 -557 -115 -107 -241 -59 -332 125 -69 141 -84 214 -84 422
0 155 3 191 22 259 69 250 212 390 337 330z"/>
<path d="M10878 3640 c-125 -22 -247 -82 -292 -143 -27 -37 -28 -104 -1 -123
37 -27 73 -17 125 35 78 78 211 117 307 90 113 -31 170 -142 180 -346 3 -62 3
-113 1 -113 -3 0 -37 12 -74 26 -94 36 -219 38 -317 5 -154 -52 -278 -190
-322 -356 -19 -76 -19 -214 0 -290 45 -176 178 -316 339 -360 93 -25 239 -18
323 17 l61 25 6 -29 c8 -38 49 -78 81 -78 28 0 75 40 75 64 0 9 -12 51 -26 93
-37 107 -41 262 -19 619 28 449 4 627 -105 765 -63 79 -213 122 -342 99z m204
-717 c35 -17 73 -39 86 -49 l22 -19 -10 -290 c-6 -159 -13 -295 -15 -301 -2
-7 -29 -24 -60 -39 -79 -39 -179 -45 -257 -15 -128 48 -226 188 -236 333 -10
159 72 308 207 376 94 48 166 49 263 4z"/>
<path d="M16525 3636 c-186 -37 -295 -111 -295 -200 0 -82 71 -104 129 -41 46
51 98 82 166 100 102 26 171 15 231 -37 68 -60 104 -173 104 -332 0 -80 -2
-87 -17 -81 -101 41 -133 48 -218 48 -282 0 -495 -225 -495 -523 1 -214 107
-392 287 -478 77 -37 79 -37 203 -37 112 0 131 3 186 26 l62 26 11 -38 c20
-67 87 -91 129 -46 26 28 28 66 6 109 -45 87 -53 251 -28 621 32 482 0 684
-127 808 -77 75 -196 102 -334 75z m241 -725 l83 -41 -6 -298 -5 -297 -27 -23
c-77 -66 -227 -81 -326 -32 -183 89 -264 327 -176 515 50 108 134 182 240 212
69 19 124 10 217 -36z"/>
<path d="M14434 3631 c-187 -47 -314 -366 -314 -788 0 -390 112 -714 273 -792
57 -28 137 -28 194 0 122 59 220 279 254 572 17 144 6 444 -20 565 -47 221
-119 361 -214 417 -46 26 -125 38 -173 26z m115 -167 c93 -78 159 -297 168
-560 11 -304 -55 -589 -163 -697 -44 -43 -71 -46 -111 -13 -98 82 -173 361
-173 641 0 285 55 503 155 614 45 49 79 53 124 15z"/>
<path d="M11843 3615 c-109 -47 -205 -232 -249 -480 -25 -139 -25 -460 0 -600
47 -259 138 -440 250 -494 53 -26 127 -27 181 -2 84 38 166 161 219 329 30 96
32 119 10 150 -16 23 -75 31 -103 13 -8 -5 -25 -46 -38 -90 -12 -45 -37 -111
-55 -147 -32 -65 -95 -134 -123 -134 -25 0 -81 58 -113 117 -141 265 -149 792
-17 1069 34 70 100 144 130 144 44 0 124 -114 160 -230 9 -30 26 -63 37 -72
44 -38 118 -8 118 47 0 14 -9 53 -21 87 -47 140 -122 249 -201 289 -44 23
-137 25 -185 4z"/>
<path d="M13302 3614 l-22 -19 2 -1180 3 -1180 51 -3 c88 -5 84 -27 84 412 l0
383 52 6 c108 13 223 90 303 202 206 289 233 766 62 1100 -53 103 -165 219
-252 260 -51 24 -76 30 -160 33 -87 4 -103 2 -123 -14z m223 -151 c151 -77
261 -283 284 -533 33 -354 -130 -711 -346 -758 l-43 -10 0 665 0 665 37 -7
c21 -4 51 -14 68 -22z"/>
<path d="M17321 3611 l-21 -21 0 -1168 c0 -895 3 -1171 12 -1180 16 -16 100
-16 116 0 9 9 12 112 12 400 l0 388 28 0 c46 0 133 29 184 62 50 32 158 141
158 161 0 6 18 45 39 87 45 87 88 217 97 295 4 30 11 55 15 55 24 0 3 404 -21
420 -4 3 -15 32 -25 65 -9 33 -37 98 -61 146 -24 47 -44 91 -44 97 0 27 -128
140 -195 173 -62 30 -79 34 -171 37 -93 4 -104 2 -123 -17z m224 -150 c118
-56 216 -198 266 -386 34 -127 34 -480 0 -505 -4 -3 -20 -40 -35 -83 -62 -172
-176 -290 -308 -321 l-28 -6 0 665 0 665 23 0 c12 0 49 -13 82 -29z"/>
<path d="M9793 3601 c-19 -18 -20 -34 -26 -347 -3 -180 -3 -519 0 -753 5 -419
6 -426 27 -443 28 -23 52 -22 76 2 20 20 20 33 20 710 l0 690 233 0 c268 0
267 0 267 83 0 77 -1 77 -310 77 -247 0 -268 -1 -287 -19z"/>
<path d="M12325 3596 c-29 -29 -31 -52 -9 -84 15 -21 21 -22 175 -22 l159 0 0
-692 c0 -539 3 -699 13 -718 11 -21 20 -25 57 -25 37 0 46 4 57 25 10 19 13
179 13 718 l0 692 159 0 c132 0 162 3 175 16 20 19 21 64 2 90 -14 18 -32 19
-395 22 l-381 3 -25 -25z"/>
<path d="M18030 3091 c0 -11 7 -27 16 -35 14 -15 454 -16 4695 -16 l4679 0 0
35 0 35 -4695 0 c-4630 0 -4695 0 -4695 -19z"/>
<path d="M18040 2995 c-16 -19 -5 -271 12 -292 8 -11 871 -13 4689 -13 l4679
0 0 160 0 160 -4684 0 c-4193 0 -4685 -2 -4696 -15z"/>
</g>
</svg>
